<?xml version="1.0" standalone="no"?>
<!DOCTYPE svg PUBLIC "-//W3C//DTD SVG 20010904//EN"
 "http://www.w3.org/TR/2001/REC-SVG-20010904/DTD/svg10.dtd">
<svg version="1.0" xmlns="http://www.w3.org/2000/svg"
 width="2560.000000pt" height="2560.000000pt" viewBox="0 0 2560.000000 2560.000000"
 preserveAspectRatio="xMidYMid meet">
<metadata>
Created by potrace 1.14, written by Peter Selinger 2001-2017
</metadata>
<g transform="translate(0.000000,2560.000000) scale(0.100000,-0.100000)"
fill="#000000" stroke="none">
<path d="M12477 13920 c-97 -25 -164 -85 -188 -169 -8 -25 -13 -84 -13 -131 1
-102 29 -176 81 -219 l35 -29 -37 -48 c-21 -27 -42 -60 -49 -74 -8 -18 -13
-232 -16 -725 -3 -385 -9 -707 -13 -716 -4 -9 -32 -26 -62 -38 -85 -35 -140
-83 -170 -147 -24 -51 -26 -66 -23 -148 4 -105 21 -149 81 -209 63 -63 115
-81 228 -80 l95 2 40 -41 c70 -74 156 -97 289 -79 179 24 344 146 423 311 55
114 72 195 72 341 0 65 2 119 4 119 3 0 38 -18 79 -40 89 -48 168 -77 265 -95
39 -8 96 -27 125 -41 141 -72 276 -98 468 -92 158 5 259 30 387 94 59 30 81
37 77 26 -37 -89 -43 -152 -20 -229 33 -112 150 -193 341 -238 60 -14 144 -42
187 -62 100 -45 228 -78 392 -99 110 -14 147 -15 237 -5 378 41 634 231 718
533 11 40 20 83 20 95 0 18 7 23 38 28 20 4 49 9 64 11 22 4 34 -3 67 -39 113
-122 319 -122 432 0 43 47 78 114 79 151 0 12 2 22 5 22 2 0 24 -21 47 -46 72
-78 168 -111 277 -93 l55 8 33 -39 c18 -21 59 -51 90 -66 72 -36 183 -39 253
-7 59 26 134 102 155 157 l17 44 71 -38 c79 -42 176 -74 253 -85 27 -4 85 -24
129 -46 127 -62 223 -82 374 -77 131 5 216 27 313 81 l37 20 48 -31 c64 -40
124 -55 192 -47 114 13 199 75 248 181 l24 52 -3 654 -3 653 -23 42 c-67 126
-184 184 -327 161 l-54 -8 -42 45 c-95 103 -287 116 -400 25 l-37 -29 -70 29
c-117 50 -191 62 -332 57 -205 -7 -343 -64 -490 -203 l-75 -72 -40 35 c-22 19
-62 46 -88 60 -56 28 -185 63 -234 63 -20 0 -65 17 -116 44 -102 55 -194 76
-329 76 -128 0 -197 -17 -310 -74 -85 -43 -87 -44 -104 -25 -9 10 -41 31 -71
45 -42 21 -68 26 -125 27 -88 0 -134 -14 -193 -59 -40 -30 -50 -33 -107 -32
-35 0 -77 -2 -93 -6 -27 -6 -37 -1 -81 42 -68 65 -129 86 -234 80 -80 -5 -142
-30 -183 -76 -18 -19 -18 -19 -95 14 -120 52 -203 67 -345 62 -95 -4 -140 -11
-202 -31 -118 -39 -227 -107 -319 -200 -55 -56 -82 -77 -91 -71 -124 90 -216
137 -322 164 -42 11 -87 20 -100 20 -13 0 -61 18 -107 40 -120 58 -217 80
-345 80 -208 -1 -373 -60 -522 -189 -39 -34 -53 -41 -62 -31 -9 9 -5 18 18 38
60 52 85 122 85 235 0 97 -24 164 -79 218 -57 57 -124 79 -240 79 -80 0 -82 1
-111 34 -46 52 -119 78 -225 82 -49 2 -107 -1 -128 -6z m223 -158 c41 -20 59
-62 59 -137 0 -119 -40 -155 -172 -155 -103 0 -139 16 -160 69 -35 86 -11 201
47 227 46 20 183 18 226 -4z m1194 -452 c124 -31 208 -82 311 -185 69 -68 101
-109 132 -170 55 -106 83 -210 83 -306 0 -88 -20 -129 -80 -160 -32 -18 -66
-19 -497 -19 -273 0 -464 -4 -468 -9 -9 -15 34 -118 69 -164 75 -98 188 -156
321 -164 105 -7 192 14 302 72 96 51 139 56 191 25 98 -60 93 -169 -11 -252
-92 -72 -209 -117 -366 -139 -185 -26 -411 30 -554 137 -126 95 -212 223 -256
384 -40 143 -26 374 31 520 58 148 189 301 313 367 58 30 163 67 215 76 69 12
192 6 264 -13z m1495 -5 c82 -17 197 -71 257 -120 23 -19 47 -35 52 -35 5 0
15 21 21 46 37 145 240 166 301 31 19 -40 20 -73 20 -683 0 -535 -3 -656 -15
-730 -45 -258 -219 -420 -516 -480 -150 -30 -435 -5 -589 53 -141 52 -189 133
-141 238 46 100 111 116 253 62 148 -57 194 -67 298 -67 145 0 222 24 298 94
58 53 75 99 80 214 3 56 2 102 -1 102 -3 0 -32 -23 -64 -51 -73 -64 -196 -123
-290 -140 -57 -9 -91 -10 -159 0 -306 43 -527 264 -584 587 -16 89 -8 298 14
377 100 359 426 573 765 502z m1912 0 c137 -29 215 -91 275 -219 64 -136 69
-188 69 -682 l0 -440 -27 -41 c-34 -52 -86 -77 -149 -71 -51 5 -108 40 -131
81 -10 16 -14 133 -18 457 l-6 435 -25 55 c-48 102 -138 147 -275 137 -129
-10 -226 -73 -276 -182 -23 -49 -23 -58 -28 -467 -5 -403 -6 -418 -26 -445
-74 -100 -201 -98 -271 5 -13 20 -24 56 -28 95 -3 34 -5 305 -3 602 3 524 4
541 24 575 32 55 77 80 143 80 93 0 161 -60 161 -142 0 -21 3 -38 6 -38 3 0
37 28 74 63 147 135 317 183 511 142z m1381 4 c87 -17 182 -57 249 -104 l63
-44 19 49 c20 55 51 85 107 101 70 21 154 -12 187 -73 17 -31 18 -75 18 -653
0 -608 0 -621 -21 -655 -30 -52 -87 -82 -150 -77 -65 4 -106 33 -135 95 -12
26 -24 49 -25 51 -2 2 -22 -13 -46 -33 -63 -55 -177 -105 -276 -124 -98 -17
-202 -8 -306 28 -185 63 -339 226 -411 435 -25 71 -29 97 -33 241 -3 141 -1
172 17 245 79 314 327 523 623 528 37 1 91 -4 120 -10z m-6005 -50 c18 -12 42
-38 53 -60 19 -37 20 -62 20 -742 0 -458 -4 -724 -11 -763 -37 -205 -198 -358
-388 -371 -135 -10 -191 37 -191 160 0 57 4 70 27 98 15 18 58 46 98 64 38 18
80 43 92 56 46 51 47 65 52 794 7 768 2 722 74 765 45 28 129 27 174 -1z"/>
<path d="M13595 13012 c-71 -26 -85 -35 -127 -79 -43 -44 -91 -142 -86 -175
l3 -23 340 0 340 0 3 25 c11 72 -75 188 -176 237 -75 37 -219 44 -297 15z"/>
<path d="M15200 13004 c-75 -20 -143 -67 -195 -137 -56 -73 -83 -146 -91 -244
-22 -283 153 -494 409 -493 95 0 222 54 281 121 83 92 117 185 117 329 0 132
-34 229 -109 312 -99 109 -259 153 -412 112z m368 -311 c30 -107 21 -210 -26
-296 -25 -46 -73 -97 -92 -97 -18 0 -34 78 -34 160 0 72 5 95 29 148 25 55 81
122 104 122 4 0 13 -17 19 -37z"/>
<path d="M18515 13006 c-72 -23 -122 -54 -170 -108 -61 -67 -93 -137 -111
-240 -36 -208 61 -417 230 -494 190 -87 417 3 506 199 74 164 58 353 -42 498
-22 31 -58 70 -82 87 -89 64 -233 89 -331 58z m357 -370 c18 -111 -12 -230
-75 -298 -15 -16 -31 -28 -36 -28 -29 0 -35 197 -8 276 20 58 85 140 99 126 5
-5 14 -39 20 -76z"/>
<path d="M5961 13714 c-192 -52 -313 -177 -369 -384 -39 -143 -47 -240 -46
-555 1 -382 18 -498 97 -663 60 -127 183 -222 327 -253 30 -6 89 -26 130 -42
72 -30 82 -31 251 -35 198 -4 256 5 369 60 177 86 299 303 300 534 0 73 -16
84 -118 84 -79 0 -82 1 -88 25 -3 14 -14 30 -24 35 -25 13 -269 13 -308 -1
-33 -11 -47 -37 -62 -116 -15 -85 -61 -152 -116 -173 -44 -17 -101 -28 -112
-21 -17 11 -39 64 -53 126 -19 86 -19 673 0 768 23 117 83 183 179 201 27 5
38 1 58 -21 23 -25 31 -44 54 -139 13 -52 38 -64 135 -64 56 0 75 -3 75 -13 0
-34 34 -44 166 -51 163 -7 189 0 206 56 18 60 -9 178 -67 295 -35 72 -58 103
-105 146 -71 64 -153 110 -230 127 -30 7 -75 22 -100 33 -101 44 -178 57 -340
56 -103 0 -173 -5 -209 -15z"/>
<path d="M7491 13714 c-140 -37 -258 -133 -316 -256 -74 -156 -101 -344 -98
-688 3 -350 24 -487 98 -645 67 -143 166 -223 328 -265 40 -10 104 -31 142
-47 68 -27 75 -28 265 -28 227 0 290 14 399 87 84 56 123 104 182 223 62 128
70 185 76 571 4 225 1 321 -11 425 -19 157 -28 189 -81 289 -66 125 -174 215
-299 250 -39 11 -95 30 -124 41 -118 47 -189 59 -352 58 -102 0 -173 -5 -209
-15z m424 -434 c9 -10 27 -50 38 -87 18 -60 21 -101 24 -358 2 -159 -1 -319
-7 -355 -28 -189 -81 -254 -220 -272 -20 -2 -29 5 -47 38 -48 86 -68 492 -38
762 16 144 27 179 70 231 51 60 144 81 180 41z"/>
<path d="M8744 13710 c-87 -19 -83 27 -90 -897 -4 -444 -4 -829 0 -855 4 -27
17 -57 31 -72 22 -24 31 -26 104 -26 73 0 81 -2 92 -22 25 -47 26 -47 379 -48
318 0 340 1 426 23 167 43 269 125 351 284 47 91 52 107 67 224 33 255 16 822
-28 947 -22 61 -77 160 -114 203 -44 51 -186 128 -268 145 -36 8 -83 23 -106
35 -23 12 -83 31 -132 42 -80 18 -128 21 -386 22 -162 1 -309 -1 -326 -5z
m657 -436 c59 -6 67 -9 82 -36 34 -59 48 -189 48 -458 0 -296 -13 -400 -58
-464 -42 -58 -83 -76 -176 -76 l-79 0 8 518 c5 360 10 519 18 525 6 4 29 5 51
3 22 -3 69 -8 106 -12z"/>
<path d="M10265 13711 c-11 -5 -28 -18 -38 -29 -18 -19 -19 -66 -24 -885 -3
-475 -3 -875 0 -888 8 -33 55 -49 139 -49 61 0 66 -2 72 -24 4 -18 16 -26 49
-34 48 -13 998 -18 1018 -7 27 17 39 76 39 188 0 100 -3 117 -21 141 -19 24
-26 26 -102 26 -81 1 -82 1 -102 33 l-20 32 -248 3 -247 2 2 171 3 170 337 2
c305 2 339 4 355 19 13 14 18 44 24 150 7 130 3 162 -25 180 -6 4 -48 8 -93 8
-67 0 -83 3 -83 15 0 8 -9 24 -20 35 -19 19 -33 20 -254 20 l-235 0 -3 143
c-2 78 -1 146 1 150 2 5 155 8 340 7 185 -1 341 -2 347 -1 6 0 16 13 22 29 15
39 23 259 10 288 -15 33 -58 48 -122 40 -42 -6 -57 -4 -70 9 -9 9 -16 20 -16
25 0 5 -12 16 -27 24 -23 11 -117 14 -508 14 -264 1 -489 -3 -500 -7z"/>
</g>
</svg>
